{
    "asset": {
        "generator": "COLLADA2GLTF",
        "version": "2.0"
    },
    "scenes": [
        {
            "nodes": [
                0
            ]
        }
    ],
    "scene": 0,
    "nodes": [
        {
            "children": [
                10,
                8,
                7,
                6,
                5,
                4,
                3,
                2,
                1
            ],
            "matrix": [
                1.0,
                0.0,
                0.0,
                0.0,
                0.0,
                0.0,
                -1.0,
                0.0,
                0.0,
                1.0,
                0.0,
                0.0,
                0.0,
                0.0,
                0.0,
                1.0
            ],
            "name": "Z_UP"
        },
        {
            "mesh": 0,
            "matrix": [
                0.009999999776482582,
                0.0,
                0.0,
                0.0,
                0.0,
                -1.331131538329089e-9,
                0.009999999776482582,
                0.0,
                0.0,
                -0.009999999776482582,
                -1.331131538329089e-9,
                0.0,
                0.0,
                0.0,
                0.0,
                1.0
            ],
            "name": "____.1"
        },
        {
            "mesh": 1,
            "matrix": [
                0.009999999776482582,
                0.0,
                0.0,
                0.0,
                0.0,
                -1.331131538329089e-9,
                0.009999999776482582,
                0.0,
                0.0,
                -0.009999999776482582,
                -1.331131538329089e-9,
                0.0,
                0.0,
                0.0,
                0.0,
                1.0
            ],
            "name": "____.2"
        },
        {
            "mesh": 2,
            "matrix": [
                0.009999999776482582,
                0.0,
                0.0,
                0.0,
                0.0,
                -1.331131538329089e-9,
                0.009999999776482582,
                0.0,
                0.0,
                -0.009999999776482582,
                -1.331131538329089e-9,
                0.0,
                0.0,
                0.0,
                0.0,
                1.0
            ],
            "name": "____.3"
        },
        {
            "mesh": 3,
            "matrix": [
                0.009999999776482582,
                0.0,
                0.0,
                0.0,
                0.0,
                -1.331131538329089e-9,
                0.009999999776482582,
                0.0,
                0.0,
                -0.009999999776482582,
                -1.331131538329089e-9,
                0.0,
                0.0,
                0.0,
                0.0,
                1.0
            ],
            "name": "____.6"
        },
        {
            "mesh": 4,
            "matrix": [
                0.009999999776482582,
                0.0,
                0.0,
                0.0,
                0.0,
                -1.331131538329089e-9,
                -0.009999999776482582,
                0.0,
                0.0,
                0.009999999776482582,
                -1.331131538329089e-9,
                0.0,
                0.015852900221943857,
                0.02429630048573017,
                3.199339866638184,
                1.0
            ],
            "name": "____"
        },
        {
            "mesh": 5,
            "matrix": [
                0.009999999776482582,
                0.0,
                0.0,
                0.0,
                0.0,
                -1.331131538329089e-9,
                0.009999999776482582,
                0.0,
                0.0,
                -0.009999999776482582,
                -1.331131538329089e-9,
                0.0,
                0.0016485899686813357,
                0.02265790104866028,
                3.774580001831055,
                1.0
            ],
            "name": "______"
        },
        {
            "mesh": 6,
            "matrix": [
                0.009999999776482582,
                0.0,
                0.0,
                0.0,
                0.0,
                -1.331131538329089e-9,
                0.009999999776482582,
                0.0,
                0.0,
                -0.009999999776482582,
                -1.331131538329089e-9,
                0.0,
                0.015959400683641438,
                0.02265790104866028,
                2.1683599948883058,
                1.0
            ],
            "name": "______.1"
        },
        {
            "children": [
                9
            ],
            "matrix": [
                0.009999999776482582,
                0.0,
                0.0,
                0.0,
                0.0,
                -1.331131538329089e-9,
                0.009999999776482582,
                0.0,
                0.0,
                -0.009999999776482582,
                -1.331131538329089e-9,
                0.0,
                0.0,
                0.0,
                0.0,
                1.0
            ],
            "name": "____.1"
        },
        {
            "mesh": 7,
            "matrix": [
                1.0,
                0.0,
                0.0,
                0.0,
                0.0,
                1.0,
                0.0,
                0.0,
                0.0,
                0.0,
                1.0,
                0.0,
                1.5959399938583377,
                609.5450439453125,
                -2.2657899856567385,
                1.0
            ],
            "name": "______.2"
        },
        {
            "mesh": 8,
            "matrix": [
                0.009999999776482582,
                0.0,
                0.0,
                0.0,
                0.0,
                -1.331131538329089e-9,
                0.009999999776482582,
                0.0,
                0.0,
                -0.009999999776482582,
                -1.331131538329089e-9,
                0.0,
                0.0,
                0.0,
                0.0,
                1.0
            ],
            "name": "____"
        }
    ],
    "meshes": [
        {
            "primitives": [
                {
                    "attributes": {
                        "NORMAL": 1,
                        "POSITION": 2
                    },
                    "indices": 0,
                    "mode": 4,
                    "material": 0
                }
            ],
            "name": "____.1"
        },
        {
            "primitives": [
                {
                    "attributes": {
                        "NORMAL": 4,
                        "POSITION": 5
                    },
                    "indices": 3,
                    "mode": 4,
                    "material": 1
                }
            ],
            "name": "____.2"
        },
        {
            "primitives": [
                {
                    "attributes": {
                        "NORMAL": 7,
                        "POSITION": 8
                    },
                    "indices": 6,
                    "mode": 4,
                    "material": 2
                }
            ],
            "name": "____.3"
        },
        {
            "primitives": [
                {
                    "attributes": {
                        "NORMAL": 10,
                        "POSITION": 11
                    },
                    "indices": 9,
                    "mode": 4,
                    "material": 3
                }
            ],
            "name": "____.6"
        },
        {
            "primitives": [
                {
                    "attributes": {
                        "NORMAL": 13,
                        "POSITION": 14
                    },
                    "indices": 12,
                    "mode": 4,
                    "material": 4
                }
            ],
            "name": "____"
        },
        {
            "primitives": [
                {
                    "attributes": {
                        "NORMAL": 16,
                        "POSITION": 17
                    },
                    "indices": 15,
                    "mode": 4,
                    "material": 5
                }
            ],
            "name": "______"
        },
        {
            "primitives": [
                {
                    "attributes": {
                        "NORMAL": 19,
                        "POSITION": 20
                    },
                    "indices": 18,
                    "mode": 4,
                    "material": 6
                }
            ],
            "name": "______.1"
        },
        {
            "primitives": [
                {
                    "attributes": {
                        "NORMAL": 22,
                        "POSITION": 23
                    },
                    "indices": 21,
                    "mode": 4,
                    "material": 7
                }
            ],
            "name": "______.2"
        },
        {
            "primitives": [
                {
                    "attributes": {
                        "NORMAL": 25,
                        "POSITION": 26
                    },
                    "indices": 24,
                    "mode": 4,
                    "material": 8
                }
            ],
            "name": "____"
        }
    ],
    "accessors": [
        {
            "bufferView": 0,
            "byteOffset": 0,
            "componentType": 5123,
            "count": 864,
            "max": [
                217
            ],
            "min": [
                0
            ],
            "type": "SCALAR"
        },
        {
            "bufferView": 1,
            "byteOffset": 0,
            "componentType": 5126,
            "count": 218,
            "max": [
                0.0,
                1.0,
                0.0
            ],
            "min": [
                0.0,
                -1.0,
                0.0
            ],
            "type": "VEC3"
        },
        {
            "bufferView": 1,
            "byteOffset": 2616,
            "componentType": 5126,
            "count": 218,
            "max": [
                175.51600646972657,
                0.0,
                175.51600646972657
            ],
            "min": [
                -175.51600646972657,
                0.0,
                -175.51600646972657
            ],
            "type": "VEC3"
        },
        {
            "bufferView": 0,
            "byteOffset": 1728,
            "componentType": 5123,
            "count": 864,
            "max": [
                289
            ],
            "min": [
                0
            ],
            "type": "SCALAR"
        },
        {
            "bufferView": 1,
            "byteOffset": 5232,
            "componentType": 5126,
            "count": 290,
            "max": [
                1.0,
                1.0,
                1.0
            ],
            "min": [
                -1.0,
                -1.0,
                -1.0
            ],
            "type": "VEC3"
        },
        {
            "bufferView": 1,
            "byteOffset": 8712,
            "componentType": 5126,
            "count": 290,
            "max": [
                69.06939697265625,
                2.287240028381348,
                69.06939697265625
            ],
            "min": [
                -69.06939697265625,
                -2.287240028381348,
                -69.06939697265625
            ],
            "type": "VEC3"
        },
        {
            "bufferView": 0,
            "byteOffset": 3456,
            "componentType": 5123,
            "count": 864,
            "max": [
                289
            ],
            "min": [
                0
            ],
            "type": "SCALAR"
        },
        {
            "bufferView": 1,
            "byteOffset": 12192,
            "componentType": 5126,
            "count": 290,
            "max": [
                1.0,
                1.0,
                1.0
            ],
            "min": [
                -1.0,
                -1.0,
                -1.0
            ],
            "type": "VEC3"
        },
        {
            "bufferView": 1,
            "byteOffset": 15672,
            "componentType": 5126,
            "count": 290,
            "max": [
                176.5360107421875,
                2.025290012359619,
                176.5360107421875
            ],
            "min": [
                -176.5360107421875,
                -2.025290012359619,
                -176.5360107421875
            ],
            "type": "VEC3"
        },
        {
            "bufferView": 0,
            "byteOffset": 5184,
            "componentType": 5123,
            "count": 864,
            "max": [
                289
            ],
            "min": [
                0
            ],
            "type": "SCALAR"
        },
        {
            "bufferView": 1,
            "byteOffset": 19152,
            "componentType": 5126,
            "count": 290,
            "max": [
                1.0,
                1.0,
                1.0
            ],
            "min": [
                -1.0,
                -1.0,
                -1.0
            ],
            "type": "VEC3"
        },
        {
            "bufferView": 1,
            "byteOffset": 22632,
            "componentType": 5126,
            "count": 290,
            "max": [
                225.9650115966797,
                2.542490005493164,
                225.9650115966797
            ],
            "min": [
                -225.9650115966797,
                -2.542490005493164,
                -225.9650115966797
            ],
            "type": "VEC3"
        },
        {
            "bufferView": 0,
            "byteOffset": 6912,
            "componentType": 5123,
            "count": 18,
            "max": [
                15
            ],
            "min": [
                0
            ],
            "type": "SCALAR"
        },
        {
            "bufferView": 1,
            "byteOffset": 26112,
            "componentType": 5126,
            "count": 16,
            "max": [
                0.9586299657821656,
                0.2846539914608002,
                0.9586299657821656
            ],
            "min": [
                -0.9586299657821656,
                -1.0,
                -0.9586299657821656
            ],
            "type": "VEC3"
        },
        {
            "bufferView": 1,
            "byteOffset": 26304,
            "componentType": 5126,
            "count": 16,
            "max": [
                171.24900817871098,
                288.3580017089844,
                171.24900817871098
            ],
            "min": [
                -171.24900817871098,
                -288.3580017089844,
                -171.24900817871098
            ],
            "type": "VEC3"
        },
        {
            "bufferView": 0,
            "byteOffset": 6948,
            "componentType": 5123,
            "count": 36,
            "max": [
                23
            ],
            "min": [
                0
            ],
            "type": "SCALAR"
        },
        {
            "bufferView": 1,
            "byteOffset": 26496,
            "componentType": 5126,
            "count": 24,
            "max": [
                1.0,
                1.0,
                1.0
            ],
            "min": [
                -1.0,
                -1.0,
                -1.0
            ],
            "type": "VEC3"
        },
        {
            "bufferView": 1,
            "byteOffset": 26784,
            "componentType": 5126,
            "count": 24,
            "max": [
                98.86429595947266,
                1.0646899938583377,
                98.94229888916016
            ],
            "min": [
                -98.86429595947266,
                -1.0646899938583377,
                -98.94229888916016
            ],
            "type": "VEC3"
        },
        {
            "bufferView": 0,
            "byteOffset": 7020,
            "componentType": 5123,
            "count": 36,
            "max": [
                23
            ],
            "min": [
                0
            ],
            "type": "SCALAR"
        },
        {
            "bufferView": 1,
            "byteOffset": 27072,
            "componentType": 5126,
            "count": 24,
            "max": [
                1.0,
                1.0,
                1.0
            ],
            "min": [
                -1.0,
                -1.0,
                -1.0
            ],
            "type": "VEC3"
        },
        {
            "bufferView": 1,
            "byteOffset": 27360,
            "componentType": 5126,
            "count": 24,
            "max": [
                52.39809799194336,
                0.5642880201339722,
                52.43939971923828
            ],
            "min": [
                -52.39809799194336,
                -0.5642880201339722,
                -52.43939971923828
            ],
            "type": "VEC3"
        },
        {
            "bufferView": 0,
            "byteOffset": 7092,
            "componentType": 5123,
            "count": 72,
            "max": [
                31
            ],
            "min": [
                0
            ],
            "type": "SCALAR"
        },
        {
            "bufferView": 1,
            "byteOffset": 27648,
            "componentType": 5126,
            "count": 32,
            "max": [
                1.0,
                1.0,
                1.0
            ],
            "min": [
                -1.0,
                -1.0,
                -1.0
            ],
            "type": "VEC3"
        },
        {
            "bufferView": 1,
            "byteOffset": 28032,
            "componentType": 5126,
            "count": 32,
            "max": [
                169.989013671875,
                1.8306599855422976,
                170.1230010986328
            ],
            "min": [
                -169.989013671875,
                -1.8306599855422976,
                -170.1230010986328
            ],
            "type": "VEC3"
        },
        {
            "bufferView": 0,
            "byteOffset": 7236,
            "componentType": 5123,
            "count": 864,
            "max": [
                289
            ],
            "min": [
                0
            ],
            "type": "SCALAR"
        },
        {
            "bufferView": 1,
            "byteOffset": 28416,
            "componentType": 5126,
            "count": 290,
            "max": [
                1.0,
                1.0,
                1.0
            ],
            "min": [
                -1.0,
                -1.0,
                -1.0
            ],
            "type": "VEC3"
        },
        {
            "bufferView": 1,
            "byteOffset": 31896,
            "componentType": 5126,
            "count": 290,
            "max": [
                477.0970153808594,
                1.706839919090271,
                477.0970153808594
            ],
            "min": [
                -477.0970153808594,
                -1.706839919090271,
                -477.0970153808594
            ],
            "type": "VEC3"
        }
    ],
    "materials": [
        {
            "pbrMetallicRoughness": {
                "baseColorFactor": [
                    1.0,
                    0.14999999105930329,
                    0.0,
                    0.0836828202009201
                ],
                "metallicFactor": 0.0
            },
            "emissiveFactor": [
                0.0,
                0.0,
                0.0
            ],
            "alphaMode": "BLEND",
            "name": "____"
        },
        {
            "pbrMetallicRoughness": {
                "baseColorFactor": [
                    1.0,
                    0.49400001764297488,
                    0.3100000023841858,
                    1.0
                ],
                "metallicFactor": 0.0
            },
            "emissiveFactor": [
                0.0,
                0.0,
                0.0
            ],
            "name": "____.1"
        },
        {
            "pbrMetallicRoughness": {
                "baseColorFactor": [
                    1.0,
                    0.49400001764297488,
                    0.3100000023841858,
                    1.0
                ],
                "metallicFactor": 0.0
            },
            "emissiveFactor": [
                0.0,
                0.0,
                0.0
            ],
            "name": "____.1"
        },
        {
            "pbrMetallicRoughness": {
                "baseColorFactor": [
                    1.0,
                    0.14999999105930329,
                    0.0,
                    0.0836828202009201
                ],
                "metallicFactor": 0.0
            },
            "emissiveFactor": [
                0.0,
                0.0,
                0.0
            ],
            "alphaMode": "BLEND",
            "name": "____"
        },
        {
            "pbrMetallicRoughness": {
                "baseColorFactor": [
                    1.0,
                    0.0,
                    0.0,
                    0.5600000023841858
                ],
                "metallicFactor": 0.0
            },
            "emissiveFactor": [
                0.0,
                0.0,
                0.0
            ],
            "alphaMode": "BLEND",
            "name": "____.3"
        },
        {
            "pbrMetallicRoughness": {
                "baseColorFactor": [
                    1.0,
                    0.14999999105930329,
                    0.14999999105930329,
                    1.0
                ],
                "metallicFactor": 0.0
            },
            "emissiveFactor": [
                0.0,
                0.0,
                0.0
            ],
            "name": "____.2"
        },
        {
            "pbrMetallicRoughness": {
                "baseColorFactor": [
                    1.0,
                    0.14999999105930329,
                    0.14999999105930329,
                    1.0
                ],
                "metallicFactor": 0.0
            },
            "emissiveFactor": [
                0.0,
                0.0,
                0.0
            ],
            "name": "____.2"
        },
        {
            "pbrMetallicRoughness": {
                "baseColorFactor": [
                    1.0,
                    0.14999999105930329,
                    0.14999999105930329,
                    1.0
                ],
                "metallicFactor": 0.0
            },
            "emissiveFactor": [
                0.0,
                0.0,
                0.0
            ],
            "name": "____.2"
        },
        {
            "pbrMetallicRoughness": {
                "baseColorFactor": [
                    1.0,
                    0.14999999105930329,
                    0.0,
                    0.0836828202009201
                ],
                "metallicFactor": 0.0
            },
            "emissiveFactor": [
                0.0,
                0.0,
                0.0
            ],
            "alphaMode": "BLEND",
            "name": "____"
        }
    ],
    "bufferViews": [
        {
            "buffer": 0,
            "byteOffset": 35376,
            "byteLength": 8964,
            "target": 34963
        },
        {
            "buffer": 0,
            "byteOffset": 0,
            "byteLength": 35376,
            "byteStride": 12,
            "target": 34962
        }
    ],
    "buffers": [
        {
            "byteLength": 44340,
            "uri": "data:application/octet-stream;base64,"
        }
    ]
}
